# xmcd CD database file
#
# Track frame offsets:
#	150
#	14061
#	28291
#	42652
#	56362
#	72088
#	84912
#	97759
#	112123
#	126225
#	140808
#	153081
#	166270
#	178012
#	227319
#	242217
#
# Disc length: 3401 seconds
#
# Revision: 0
# Processed by: cddbd v1.5.2PL0 Copyright (c) Steve Scherf et al.
# Submitted via: CDex 1.70beta2
#
DISCID=d30d4710
DTITLE=Vian... - L'écume du jazz
DYEAR=2013
DGENRE=Jazz
TTITLE0=Buzzin Around With The Bee! (L Hampton) 
TTITLE1=St Louis Blues (B Smith)
TTITLE2=Que este-t-il de nos amours? (C Trenet)
TTITLE3=Parkers Mood (C Parker)
TTITLE4=Just friends (C Parker)
TTITLE5=Take the "A" train (D Ellington)
TTITLE6=Mood indigo (D Ellington)
TTITLE7=Cotton tail (D Ellington)
TTITLE8=Strange fruit (B Holliday)
TTITLE9=Every tub (C Basie)
TTITLE10=Honeysuckle rose (D Reinhardt)
TTITLE11=I got rhythm (D Reinhardt)
TTITLE12=A tisket a tasket (E Fitzgerald)
TTITLE13=Autumn leaves (C Adderley)
TTITLE14=Summertime (M Davis)
TTITLE15=Florence sur les Champs Elysees (M Davis)
EXTD=YEAR: 2013
EXTT0=
EXTT1=
EXTT2=
EXTT3=
EXTT4=
EXTT5=
EXTT6=
EXTT7=
EXTT8=
EXTT9=
EXTT10=
EXTT11=
EXTT12=
EXTT13=
EXTT14=
EXTT15=
PLAYORDER=
